<svg width="60" height="63" viewBox="0 0 60 63" fill="none" xmlns="http://www.w3.org/2000/svg">
<g clip-path="url(#clip0_63_268)">
<path d="M16.2209 57.2228C14.65 56.9245 13.28 55.9563 12.4763 54.5681C11.6726 53.192 11.5021 51.5359 12.0074 50.0258L15.9835 35.7475C12.6772 35.4553 9.72414 33.3059 8.51246 30.0058L5.79684 22.6078C5.5472 21.932 5.89426 21.183 6.57012 20.9334C6.60666 20.9212 6.64319 20.909 6.67363 20.8969C7.31905 20.7142 8.00709 21.0674 8.23846 21.7067L10.9541 29.0985C11.8674 31.5828 14.1751 33.1415 16.6958 33.1719L22.2732 13.1458L2.64892 18.1325C1.23022 18.4918 0.298628 19.8435 0.456937 21.2987L5.18796 58.6293C5.39498 60.4621 7.17292 61.692 8.95694 61.2415L21.1102 58.1605L16.2209 57.2228Z" fill="#FF6F3C"/>
<path d="M42.9512 13.2676L38.208 12.3847L39.0909 7.64147C39.4136 5.90007 41.088 4.74928 42.8355 5.07199L47.5787 5.95487L46.6958 10.6981C46.3731 12.4395 44.6987 13.5903 42.9512 13.2676Z" fill="#FF6F3C"/>
<path d="M54.5747 9.84565L49.8315 8.96277L50.7144 4.21957C51.0371 2.47816 52.7116 1.32737 54.4591 1.65008L59.2023 2.53296L58.3194 7.27616C57.9967 9.01757 56.3222 10.1684 54.5747 9.84565Z" fill="#FF6F3C"/>
<path d="M33.6473 5.54692L30.335 4.93195L30.9499 1.61963C31.1509 0.541905 32.186 -0.170489 33.2637 0.0304427L36.576 0.645414L35.961 3.95774C35.7601 5.03546 34.725 5.74785 33.6473 5.54692Z" fill="#FF6F3C"/>
<path d="M59.5614 21.3657C59.604 19.9287 58.5994 18.6684 57.1868 18.4004L29.2451 13.0484C29.0625 13.0118 28.8737 12.9936 28.6911 12.9936C27.455 12.9936 26.3286 13.779 25.9206 14.9846L14.3884 50.8052C13.7978 52.5527 14.8877 54.422 16.6961 54.769L54.252 61.9599C54.4468 61.9965 54.6416 62.0147 54.8304 62.0147C56.4379 62.0147 57.8139 60.7361 57.8626 59.0617L59.5614 21.3596V21.3657Z" fill="#FF6F3C"/>
<path d="M29.7688 20.9699L28.9042 28.8002C28.4049 33.3607 31.4128 37.4889 35.9063 38.4084L40.5643 39.3643C40.6008 39.3704 40.6373 39.3765 40.6739 39.3887C45.1492 40.2472 49.6001 37.5011 50.83 33.105L52.9855 25.427C53.1803 24.7328 52.7724 24.0144 52.0843 23.8195C52.0478 23.8073 52.0113 23.8013 51.9747 23.7952C51.3171 23.6673 50.6595 24.0692 50.4769 24.7207L48.3214 32.3987C47.4507 35.4979 44.3454 37.4402 41.1732 36.8313C41.1427 36.8313 41.1123 36.8192 41.0818 36.8131L36.4239 35.8571C33.2577 35.2117 31.1327 32.2952 31.4858 29.0864L32.3504 21.2561C32.4235 20.5803 31.9668 19.9592 31.3092 19.8374C31.2727 19.8313 31.2362 19.8252 31.1996 19.8192C30.4873 19.74 29.8418 20.2575 29.7627 20.9699H29.7688Z" fill="white"/>
</g>
<defs>
<clipPath id="clip0_63_268">
<rect width="59.1225" height="62.0147" fill="white" transform="translate(0.438965)"/>
</clipPath>
</defs>
</svg>
